<svg width="491" height="1048" viewBox="0 0 491 1048" fill="none" xmlns="http://www.w3.org/2000/svg">
<g opacity="0.2">
<mask id="path-1-outside-1_24_4075" maskUnits="userSpaceOnUse" x="-0.0123901" y="-0.464233" width="743" height="1048" fill="black">
<rect fill="white" x="-0.0123901" y="-0.464233" width="743" height="1048"/>
<path d="M159.507 1046.54C159.507 956.106 170.684 868.724 193.037 784.39C215.391 699.04 245.365 618.262 282.959 542.057C321.57 464.836 363.229 393.203 407.936 327.158C453.659 260.098 498.874 200.15 543.581 147.314H1V1.00001H741.715V103.115C706.152 145.79 669.066 193.037 630.455 244.857C591.845 295.66 554.758 350.02 519.196 407.936C483.633 465.852 451.627 525.8 423.177 587.78C395.743 649.761 373.898 713.265 357.64 778.293C341.383 842.306 333.255 906.826 333.255 971.855V1046.54H159.507Z"/>
</mask>
<path d="M159.507 1046.54H158.507V1047.54H159.507V1046.54ZM193.037 784.39L194.004 784.646L194.005 784.643L193.037 784.39ZM282.959 542.057L282.065 541.61L282.063 541.615L282.959 542.057ZM407.936 327.158L407.11 326.595L407.108 326.598L407.936 327.158ZM543.581 147.314L544.345 147.96L545.737 146.314H543.581V147.314ZM1 147.314H3.8147e-06V148.314H1V147.314ZM1 1V0H3.8147e-06V1H1ZM741.715 1H742.715V0H741.715V1ZM741.715 103.115L742.483 103.755L742.715 103.477V103.115H741.715ZM630.455 244.857L631.251 245.462L631.257 245.454L630.455 244.857ZM519.196 407.936L520.048 408.459V408.459L519.196 407.936ZM423.177 587.78L422.268 587.363L422.263 587.376L423.177 587.78ZM357.64 778.293L358.61 778.54L358.611 778.536L357.64 778.293ZM333.255 1046.54V1047.54H334.255V1046.54H333.255ZM160.507 1046.54C160.507 956.189 171.673 868.893 194.004 784.646L192.071 784.134C169.694 868.554 158.507 956.022 158.507 1046.54H160.507ZM194.005 784.643C216.342 699.356 246.293 618.642 283.856 542.5L282.063 541.615C244.437 617.883 214.44 698.724 192.07 784.136L194.005 784.643ZM283.854 542.504C322.446 465.319 364.083 393.724 408.764 327.719L407.108 326.598C362.374 392.682 320.694 464.353 282.065 541.61L283.854 542.504ZM408.762 327.722C454.469 260.685 499.663 200.765 544.345 147.96L542.818 146.668C498.085 199.534 452.849 259.511 407.11 326.595L408.762 327.722ZM543.581 146.314H1V148.314H543.581V146.314ZM2 147.314V1H3.8147e-06V147.314H2ZM1 2H741.715V0H1V2ZM740.715 1V103.115H742.715V1H740.715ZM740.947 102.475C705.371 145.166 668.273 192.427 629.653 244.259L631.257 245.454C669.859 193.647 706.934 146.414 742.483 103.755L740.947 102.475ZM629.659 244.252C591.027 295.083 553.922 349.47 518.343 407.413L520.048 408.459C555.594 350.57 592.662 296.237 631.251 245.462L629.659 244.252ZM518.343 407.413C482.76 465.363 450.735 525.346 422.268 587.363L424.086 588.197C452.519 526.254 484.506 466.341 520.048 408.459L518.343 407.413ZM422.263 587.376C394.806 649.408 372.941 712.966 356.67 778.051L358.611 778.536C374.854 713.564 396.68 650.114 424.091 588.185L422.263 587.376ZM356.671 778.047C340.394 842.139 332.255 906.742 332.255 971.855H334.255C334.255 906.911 342.373 842.473 358.61 778.54L356.671 778.047ZM332.255 971.855V1046.54H334.255V971.855H332.255ZM333.255 1045.54H159.507V1047.54H333.255V1045.54Z" fill="url(#paint0_linear_24_4075)" mask="url(#path-1-outside-1_24_4075)"/>
</g>
<defs>
<linearGradient id="paint0_linear_24_4075" x1="142.994" y1="-2306.18" x2="1157.68" y2="-2164.44" gradientUnits="userSpaceOnUse">
<stop stop-color="#00B4FD"/>
<stop offset="1" stop-color="#003ACE"/>
</linearGradient>
</defs>
</svg>
