<svg width="480" height="1246" viewBox="0 0 480 1246" fill="none" xmlns="http://www.w3.org/2000/svg">
<path opacity="0.2" d="M33.1956 538.126C157.377 601.232 237.949 728.515 238.029 870.85H237.969L237.976 871.356C240.81 1073.92 65.8693 1249.57 -139.259 1244.61H-139.264C-285.886 1242.87 -412.648 1158.07 -473.278 1030.19C-187.523 1092.73 87.3893 823.433 33.1956 538.126ZM-553.623 271.374C-613.841 504.571 -451.604 753.94 -216.27 794.709L-216.228 794.717H-216.178C-169.085 803.771 -117.259 804.8 -69.5662 797.271C-182.753 1003.3 -492.941 1044.04 -655.307 871.771L-655.318 871.758L-655.331 871.747L-657.436 869.78C-746.094 786.212 -776.69 661.764 -757.045 545.701C-737.3 429.048 -666.814 320.939 -553.623 271.374ZM41.5647 242.412C158.756 221.114 285.41 251.802 371.906 343.775L371.917 343.787L371.929 343.799C459.239 425.168 491.549 545.77 475.56 659.528C459.614 772.976 395.641 879.547 290.372 933.562C309.803 804.157 266.597 670.64 179.924 578.621L177.864 576.449C77.0354 466.629 -86.0167 417.205 -231.416 451.885C-182.687 336.575 -75.2986 263.651 41.5647 242.412ZM-508.657 372.146C-509.425 -5.98137 -0.871364 -142.183 187.751 185.001C-106.877 121.604 -384.639 410.676 -312.147 701.036C-431.945 636.28 -508.657 511.425 -508.657 372.146Z" stroke="url(#paint0_linear_24_4076)"/>
<defs>
<linearGradient id="paint0_linear_24_4076" x1="-465.784" y1="-1313.1" x2="907.438" y2="-906.258" gradientUnits="userSpaceOnUse">
<stop stop-color="#00B4FD"/>
<stop offset="1" stop-color="#003ACE"/>
</linearGradient>
</defs>
</svg>
