<svg width="66" height="66" viewBox="0 0 66 66" fill="none" xmlns="http://www.w3.org/2000/svg">
<g opacity="0.3" filter="url(#filter0_d_3471_277)">
<path d="M60.4857 27.4845H41.6496C39.8088 27.4845 38.8861 25.2584 40.1896 23.9572L53.508 10.6389C54.0997 10.0472 54.0997 9.08594 53.508 8.49654C52.9163 7.90486 51.9551 7.90486 51.3635 8.49654L38.0451 21.8149C36.7439 23.1161 34.5177 22.1957 34.5177 20.3527V1.51658C34.5177 0.677806 33.8399 0 33.0011 0C32.1624 0 31.4846 0.677806 31.4846 1.51658V20.3527C31.4846 22.1935 29.2584 23.1161 27.9572 21.8149L14.6388 8.49654C14.0471 7.90486 13.086 7.90486 12.4943 8.49654C11.9026 9.08821 11.9026 10.0472 12.4943 10.6389L25.8126 23.9572C27.1139 25.2584 26.1935 27.4845 24.3527 27.4845H5.51661C4.6801 27.4845 4 28.1624 4 29.0012C4 29.8399 4.67783 30.5177 5.51661 30.5177H24.3527C26.1935 30.5177 27.1161 32.7439 25.8126 34.0451L12.4943 47.3635C11.9026 47.9552 11.9026 48.9141 12.4943 49.5058C13.086 50.0974 14.0449 50.0974 14.6388 49.5058L27.9572 36.1874C29.2584 34.8862 31.4846 35.8065 31.4846 37.6473V56.4834C31.4846 57.3199 32.1624 58 33.0011 58C33.8399 58 34.5177 57.3199 34.5177 56.4834V37.6473C34.5177 35.8065 36.7439 34.8839 38.0451 36.1851L51.3635 49.5035C51.9551 50.0952 52.914 50.0952 53.508 49.5035C54.0997 48.9118 54.0997 47.9506 53.508 47.3612L40.1896 34.0429C38.8884 32.7416 39.8088 30.5155 41.6496 30.5155H60.4857C61.3222 30.5155 62.0023 29.8377 62.0023 28.9989C62.0023 28.1601 61.3245 27.4823 60.4857 27.4823V27.4845Z" fill="#000D12"/>
</g>
<defs>
<filter id="filter0_d_3471_277" x="0" y="0" width="66.0023" height="66" filterUnits="userSpaceOnUse" color-interpolation-filters="sRGB">
<feFlood flood-opacity="0" result="BackgroundImageFix"/>
<feColorMatrix in="SourceAlpha" type="matrix" values="0 0 0 0 0 0 0 0 0 0 0 0 0 0 0 0 0 0 127 0" result="hardAlpha"/>
<feOffset dy="4"/>
<feGaussianBlur stdDeviation="2"/>
<feComposite in2="hardAlpha" operator="out"/>
<feColorMatrix type="matrix" values="0 0 0 0 0 0 0 0 0 0 0 0 0 0 0 0 0 0 0.25 0"/>
<feBlend mode="normal" in2="BackgroundImageFix" result="effect1_dropShadow_3471_277"/>
<feBlend mode="normal" in="SourceGraphic" in2="effect1_dropShadow_3471_277" result="shape"/>
</filter>
</defs>
</svg>
