<svg width="958" height="410" viewBox="0 0 958 410" fill="none" xmlns="http://www.w3.org/2000/svg">
<g opacity="0.5">
<mask id="path-1-outside-1_55_100" maskUnits="userSpaceOnUse" x="-138.312" y="-0.716797" width="1096" height="411" fill="black">
<rect fill="white" x="-138.312" y="-0.716797" width="1096" height="411"/>
<path d="M53.1426 408.155C13.0584 408.155 -21.1086 401.092 -49.3585 386.967C-77.2266 372.461 -98.6048 350.128 -113.493 319.969C-128.382 289.811 -135.826 251.444 -135.826 204.87C-135.826 136.155 -119.22 85.1904 -86.0069 51.9777C-52.4125 18.3833 -5.83846 1.58609 53.7153 1.58609C86.5462 1.58609 115.941 7.12153 141.901 18.1924C168.242 29.2633 188.856 45.8696 203.745 68.0114C219.015 89.7714 226.65 117.639 226.65 151.616H161.37C161.37 130.619 156.98 113.058 148.2 98.9335C139.419 84.8086 126.821 74.1195 110.406 66.8661C94.3721 59.6128 75.6662 55.9861 54.2879 55.9861C27.5651 55.9861 4.85066 61.3307 -13.8553 72.0198C-32.1795 82.3272 -46.1136 97.9791 -55.6574 118.976C-64.8196 139.972 -69.4006 166.695 -69.4006 199.144V211.742C-69.4006 244.191 -64.8196 270.914 -55.6574 291.91C-46.1136 312.907 -32.1795 328.559 -13.8553 338.866C4.46892 348.792 27.1833 353.755 54.2879 353.755C76.4297 353.755 95.7083 350.319 112.124 343.447C128.539 336.194 141.137 325.505 149.917 311.38C159.08 297.255 163.661 279.694 163.661 258.698H226.65C226.65 292.674 219.015 320.733 203.745 342.875C188.856 365.017 168.242 381.432 141.901 392.121C115.941 402.81 86.3553 408.155 53.1426 408.155ZM298.005 401.283V8.45765H506.443C528.203 8.45765 547.291 12.4661 563.707 20.4829C580.122 28.118 592.911 39.1889 602.073 53.6956C611.617 68.2023 616.389 85.1904 616.389 104.66C616.389 119.548 613.526 133.101 607.799 145.317C602.455 157.533 594.82 167.84 584.894 176.239C575.35 184.637 564.47 190.936 552.254 195.136V197.426C566.379 200.48 578.977 206.207 590.048 214.605C601.5 222.622 610.472 233.311 616.961 246.673C623.833 259.652 627.269 275.304 627.269 293.628C627.269 318.442 621.733 338.866 610.662 354.9C599.973 370.934 585.658 382.768 567.715 390.403C549.773 397.657 529.349 401.283 506.443 401.283H298.005ZM362.14 346.311H501.29C518.85 346.311 533.166 341.729 544.237 332.567C555.69 323.023 561.416 307.753 561.416 286.757C561.416 274.159 558.935 263.47 553.972 254.689C549.391 245.527 542.328 238.656 532.785 234.075C523.241 229.112 511.215 226.63 496.709 226.63H362.14V346.311ZM362.14 172.803H491.555C503.771 172.803 514.269 170.513 523.05 165.931C531.83 161.35 538.511 154.861 543.092 146.462C548.055 138.063 550.536 128.71 550.536 118.403C550.536 99.697 545.382 85.9538 535.075 77.1735C525.149 68.0114 511.979 63.4303 495.563 63.4303H362.14V172.803ZM737.299 401.283C737.299 367.307 741.498 334.476 749.897 302.791C758.296 270.723 769.557 240.374 783.682 211.742C798.189 182.729 813.841 155.815 830.638 131.001C847.817 105.805 864.805 83.2816 881.602 63.4303H677.745V8.45765H956.044V46.824C942.683 62.8577 928.749 80.6093 914.242 100.079C899.736 119.167 885.802 139.59 872.44 161.35C859.079 183.11 847.054 205.634 836.364 228.921C826.057 252.208 817.849 276.068 811.741 300.5C805.633 324.551 802.579 348.792 802.579 373.224V401.283H737.299Z"/>
</mask>
<path d="M-49.3585 386.967L-50.0909 388.374L-50.0794 388.38L-50.0679 388.386L-49.3585 386.967ZM-113.493 319.969L-112.071 319.267V319.267L-113.493 319.969ZM-86.0069 51.9777L-87.1285 50.8561V50.8561L-86.0069 51.9777ZM141.901 18.1924L141.278 19.6515L141.286 19.6547L141.901 18.1924ZM203.745 68.0114L202.429 68.8965L202.437 68.9096L202.446 68.9225L203.745 68.0114ZM226.65 151.616V153.202H228.236V151.616H226.65ZM161.37 151.616H159.784V153.202H161.37V151.616ZM148.2 98.9335L146.852 99.7709V99.7709L148.2 98.9335ZM110.406 66.8661L109.752 68.3114L109.765 68.317L110.406 66.8661ZM-13.8553 72.0198L-13.0776 73.4023L-13.0683 73.397L-13.8553 72.0198ZM-55.6574 118.976L-57.1015 118.319L-57.1064 118.33L-57.1113 118.341L-55.6574 118.976ZM-55.6574 291.91L-57.1113 292.545L-57.1064 292.556L-57.1015 292.567L-55.6574 291.91ZM-13.8553 338.866L-14.633 340.249L-14.6219 340.255L-14.6108 340.261L-13.8553 338.866ZM112.124 343.447L112.736 344.911L112.751 344.905L112.765 344.898L112.124 343.447ZM149.917 311.38L148.587 310.517L148.578 310.53L148.57 310.543L149.917 311.38ZM163.661 258.698V257.112H162.074V258.698H163.661ZM226.65 258.698H228.236V257.112H226.65V258.698ZM203.745 342.875L202.439 341.974L202.434 341.982L202.429 341.99L203.745 342.875ZM141.901 392.121L141.304 390.651L141.297 390.654L141.901 392.121ZM53.1426 406.569C13.2402 406.569 -20.6707 399.538 -48.6491 385.549L-50.0679 388.386C-21.5466 402.647 12.8766 409.741 53.1426 409.741V406.569ZM-48.6261 385.56C-76.1735 371.221 -97.3206 349.146 -112.071 319.267L-114.916 320.672C-99.8891 351.11 -78.2796 373.701 -50.0909 388.374L-48.6261 385.56ZM-112.071 319.267C-126.818 289.394 -134.24 251.289 -134.24 204.87H-137.412C-137.412 251.6 -129.945 290.227 -114.916 320.672L-112.071 319.267ZM-134.24 204.87C-134.24 136.381 -117.687 85.9006 -84.8853 53.0993L-87.1285 50.8561C-120.753 84.4801 -137.412 135.928 -137.412 204.87H-134.24ZM-84.8853 53.0993C-51.6595 19.8735 -5.53032 3.17229 53.7153 3.17229V-0.000106812C-6.14661 -0.000106812 -53.1656 16.8931 -87.1285 50.8561L-84.8853 53.0993ZM53.7153 3.17229C86.3669 3.17229 115.545 8.67705 141.278 19.6515L142.523 16.7334C116.337 5.56601 86.7255 -0.000106812 53.7153 -0.000106812V3.17229ZM141.286 19.6547C167.363 30.6146 187.725 47.0298 202.429 68.8965L205.061 67.1263C189.988 44.7094 169.12 27.9119 142.515 16.7301L141.286 19.6547ZM202.446 68.9225C217.483 90.35 225.064 117.875 225.064 151.616H228.236C228.236 117.404 220.547 89.1928 205.043 67.1002L202.446 68.9225ZM226.65 150.029H161.37V153.202H226.65V150.029ZM162.956 151.616C162.956 130.4 158.52 112.531 149.547 98.0961L146.852 99.7709C155.44 113.586 159.784 130.838 159.784 151.616H162.956ZM149.547 98.0961C140.585 83.6788 127.73 72.7868 111.047 65.4152L109.765 68.317C125.913 75.4522 138.254 85.9385 146.852 99.7709L149.547 98.0961ZM111.06 65.4209C94.7812 58.0569 75.8442 54.3999 54.2879 54.3999V57.5723C75.4881 57.5723 93.963 61.1687 109.752 68.3113L111.06 65.4209ZM54.2879 54.3999C27.3547 54.3999 4.35457 59.7872 -14.6423 70.6426L-13.0683 73.397C5.34677 62.8741 27.7755 57.5723 54.2879 57.5723V54.3999ZM-14.633 70.6373C-33.2794 81.1259 -47.4324 97.0474 -57.1015 118.319L-54.2134 119.632C-44.7947 98.9108 -31.0797 83.5284 -13.0777 73.4023L-14.633 70.6373ZM-57.1113 118.341C-66.3891 139.603 -70.9868 166.561 -70.9868 199.144H-67.8144C-67.8144 166.829 -63.25 140.341 -54.2036 119.61L-57.1113 118.341ZM-70.9868 199.144V211.742H-67.8144V199.144H-70.9868ZM-70.9868 211.742C-70.9868 244.325 -66.3891 271.283 -57.1113 292.545L-54.2036 291.276C-63.25 270.545 -67.8144 244.057 -67.8144 211.742H-70.9868ZM-57.1015 292.567C-47.4324 313.839 -33.2794 329.76 -14.633 340.249L-13.0777 337.484C-31.0797 327.358 -44.7947 311.975 -54.2134 291.254L-57.1015 292.567ZM-14.6108 340.261C4.00478 350.344 26.9964 355.341 54.2879 355.341V352.169C27.3702 352.169 4.93306 347.239 -13.0998 337.472L-14.6108 340.261ZM54.2879 355.341C76.5903 355.341 96.0857 351.881 112.736 344.911L111.511 341.984C95.3309 348.757 76.2691 352.169 54.2879 352.169V355.341ZM112.765 344.898C129.448 337.527 142.302 326.635 151.265 312.217L148.57 310.543C139.972 324.375 127.631 334.861 111.483 341.996L112.765 344.898ZM151.248 312.243C160.614 297.804 165.247 279.925 165.247 258.698H162.074C162.074 279.464 157.545 296.706 148.587 310.517L151.248 312.243ZM163.661 260.284H226.65V257.112H163.661V260.284ZM225.064 258.698C225.064 292.437 217.484 320.159 202.439 341.974L205.051 343.775C220.546 321.307 228.236 292.911 228.236 258.698H225.064ZM202.429 341.99C187.728 363.852 167.373 380.073 141.304 390.651L142.497 393.591C169.111 382.791 189.985 366.181 205.061 343.76L202.429 341.99ZM141.297 390.654C115.561 401.252 86.1854 406.569 53.1426 406.569V409.741C86.5252 409.741 116.322 404.369 142.505 393.588L141.297 390.654ZM298.005 401.283H296.419V402.869H298.005V401.283ZM298.005 8.45766V6.87144H296.419V8.45766H298.005ZM563.707 20.4829L563.011 21.9082L563.024 21.9148L563.038 21.9212L563.707 20.4829ZM602.073 53.6956L600.732 54.5426L600.74 54.5551L600.748 54.5674L602.073 53.6956ZM607.799 145.317L606.363 144.643L606.354 144.662L606.346 144.681L607.799 145.317ZM584.894 176.239L583.869 175.028L583.858 175.038L583.846 175.048L584.894 176.239ZM552.254 195.136L551.738 193.636L550.668 194.004V195.136H552.254ZM552.254 197.426H550.668V198.706L551.919 198.977L552.254 197.426ZM590.048 214.605L589.089 215.869L589.113 215.887L589.138 215.905L590.048 214.605ZM616.961 246.673L615.535 247.366L615.547 247.39L615.56 247.415L616.961 246.673ZM610.662 354.9L609.357 353.999L609.35 354.009L609.343 354.02L610.662 354.9ZM567.715 390.403L568.31 391.874L568.323 391.868L568.336 391.863L567.715 390.403ZM362.14 346.311H360.554V347.897H362.14V346.311ZM544.237 332.567L545.248 333.789L545.253 333.786L544.237 332.567ZM553.972 254.689L552.553 255.399L552.571 255.435L552.591 255.47L553.972 254.689ZM532.785 234.075L532.053 235.482L532.075 235.494L532.098 235.505L532.785 234.075ZM362.14 226.63V225.044H360.554V226.63H362.14ZM362.14 172.803H360.554V174.389H362.14V172.803ZM523.05 165.931L523.784 167.338V167.338L523.05 165.931ZM543.092 146.462L541.726 145.655L541.712 145.678L541.699 145.702L543.092 146.462ZM535.075 77.1735L533.999 78.339L534.022 78.3605L534.046 78.381L535.075 77.1735ZM362.14 63.4303V61.8441H360.554V63.4303H362.14ZM299.592 401.283V8.45766H296.419V401.283H299.592ZM298.005 10.0439H506.443V6.87144H298.005V10.0439ZM506.443 10.0439C528.008 10.0439 546.849 14.0156 563.011 21.9082L564.403 19.0576C547.733 10.9165 528.399 6.87144 506.443 6.87144V10.0439ZM563.038 21.9212C579.193 29.4353 591.742 40.308 600.732 54.5426L603.414 52.8486C594.08 38.0698 581.051 26.8008 564.376 19.0447L563.038 21.9212ZM600.748 54.5674C610.101 68.7845 614.803 85.4614 614.803 104.66H617.975C617.975 84.9194 613.133 67.62 603.398 52.8238L600.748 54.5674ZM614.803 104.66C614.803 119.34 611.981 132.659 606.363 144.643L609.236 145.99C615.07 133.542 617.975 119.757 617.975 104.66H614.803ZM606.346 144.681C601.096 156.681 593.605 166.79 583.869 175.028L585.919 177.45C596.034 168.891 603.813 158.385 609.253 145.952L606.346 144.681ZM583.846 175.048C574.46 183.308 563.762 189.503 551.738 193.636L552.77 196.636C565.178 192.37 576.24 185.967 585.942 177.43L583.846 175.048ZM550.668 195.136V197.426H553.84V195.136H550.668ZM551.919 198.977C565.827 201.984 578.21 207.616 589.089 215.869L591.006 213.341C579.744 204.797 566.931 198.977 552.589 195.876L551.919 198.977ZM589.138 215.905C600.356 223.757 609.155 234.231 615.535 247.366L618.388 245.98C611.788 232.391 602.645 221.487 590.957 213.306L589.138 215.905ZM615.56 247.415C622.284 260.116 625.683 275.5 625.683 293.628H628.855C628.855 275.108 625.382 259.189 618.363 245.93L615.56 247.415ZM625.683 293.628C625.683 318.208 620.201 338.294 609.357 353.999L611.968 355.801C623.266 339.438 628.855 318.676 628.855 293.628H625.683ZM609.343 354.02C598.827 369.793 584.756 381.428 567.094 388.944L568.336 391.863C586.559 384.108 601.12 372.074 611.982 355.78L609.343 354.02ZM567.121 388.933C549.398 396.097 529.182 399.697 506.443 399.697V402.869C529.516 402.869 550.147 399.216 568.31 391.874L567.121 388.933ZM506.443 399.697H298.005V402.869H506.443V399.697ZM362.14 347.897H501.29V344.724H362.14V347.897ZM501.29 347.897C519.135 347.897 533.834 343.236 545.248 333.789L543.226 331.345C532.499 340.223 518.566 344.724 501.29 344.724V347.897ZM545.253 333.786C557.197 323.832 563.002 308.023 563.002 286.757H559.83C559.83 307.483 554.183 322.215 543.222 331.349L545.253 333.786ZM563.002 286.757C563.002 273.953 560.48 262.98 555.353 253.909L552.591 255.47C557.39 263.96 559.83 274.365 559.83 286.757H563.002ZM555.391 253.98C550.647 244.492 543.321 237.373 533.471 232.645L532.098 235.505C541.336 239.939 548.135 246.563 552.553 255.399L555.391 253.98ZM533.516 232.667C523.682 227.553 511.385 225.044 496.709 225.044V228.217C511.045 228.217 522.8 230.67 532.053 235.482L533.516 232.667ZM496.709 225.044H362.14V228.217H496.709V225.044ZM360.554 226.63V346.311H363.726V226.63H360.554ZM362.14 174.389H491.555V171.217H362.14V174.389ZM491.555 174.389C503.968 174.389 514.73 172.061 523.784 167.338L522.316 164.525C513.809 168.964 503.574 171.217 491.555 171.217V174.389ZM523.784 167.338C532.832 162.617 539.747 155.906 544.484 147.222L541.699 145.702C537.274 153.815 530.828 160.084 522.316 164.525L523.784 167.338ZM544.458 147.269C549.573 138.612 552.122 128.978 552.122 118.403H548.95C548.95 128.443 546.536 137.515 541.726 145.655L544.458 147.269ZM552.122 118.403C552.122 99.4179 546.885 85.1503 536.104 75.966L534.046 78.381C543.88 86.7574 548.95 99.9762 548.95 118.403H552.122ZM536.151 76.0079C525.872 66.5197 512.287 61.8441 495.563 61.8441V65.0165C511.671 65.0165 524.427 69.503 533.999 78.339L536.151 76.0079ZM495.563 61.8441H362.14V65.0165H495.563V61.8441ZM360.554 63.4303V172.803H363.726V63.4303H360.554ZM737.299 401.283H735.713V402.869H737.299V401.283ZM749.897 302.79L751.43 303.197L751.431 303.192L749.897 302.79ZM783.682 211.742L782.264 211.033L782.26 211.04L783.682 211.742ZM830.638 131.001L829.328 130.107L829.325 130.112L830.638 131.001ZM881.602 63.4303L882.813 64.4549L885.022 61.8441H881.602V63.4303ZM677.745 63.4303H676.159V65.0165H677.745V63.4303ZM677.745 8.45766V6.87144H676.159V8.45766H677.745ZM956.045 8.45766H957.631V6.87144H956.045V8.45766ZM956.045 46.824L957.263 47.8395L957.631 47.3983V46.824H956.045ZM914.242 100.079L915.505 101.039L915.51 101.033L915.514 101.027L914.242 100.079ZM872.44 161.35L873.792 162.18V162.18L872.44 161.35ZM836.364 228.921L834.923 228.259L834.918 228.269L834.914 228.279L836.364 228.921ZM811.741 300.5L813.279 300.89L813.28 300.885L811.741 300.5ZM802.579 401.283V402.869H804.165V401.283H802.579ZM738.885 401.283C738.885 367.439 743.068 334.745 751.43 303.197L748.364 302.384C739.929 334.207 735.713 367.175 735.713 401.283H738.885ZM751.431 303.192C759.804 271.225 771.029 240.976 785.105 212.444L782.26 211.04C768.086 239.771 756.787 270.222 748.363 302.389L751.431 303.192ZM785.101 212.451C799.579 183.495 815.196 156.642 831.952 131.89L829.325 130.112C812.485 154.988 796.799 181.962 782.264 211.033L785.101 212.451ZM831.949 131.894C849.102 106.737 866.057 84.2578 882.813 64.4549L880.391 62.4057C863.553 82.3053 846.532 104.874 829.328 130.107L831.949 131.894ZM881.602 61.8441H677.745V65.0165H881.602V61.8441ZM679.332 63.4303V8.45766H676.159V63.4303H679.332ZM677.745 10.0439H956.045V6.87144H677.745V10.0439ZM954.458 8.45766V46.824H957.631V8.45766H954.458ZM954.826 45.8085C941.443 61.8675 927.492 79.6421 912.97 99.1311L915.514 101.027C930.006 81.5765 943.923 63.8479 957.263 47.8395L954.826 45.8085ZM912.979 99.119C898.439 118.251 884.476 138.719 871.089 160.52L873.792 162.18C887.128 140.462 901.032 120.082 915.505 101.039L912.979 99.119ZM871.089 160.52C857.694 182.335 845.638 204.915 834.923 228.259L837.806 229.583C848.469 206.353 860.464 183.886 873.792 162.18L871.089 160.52ZM834.914 228.279C824.57 251.648 816.333 275.594 810.202 300.115L813.28 300.885C819.366 276.542 827.544 252.768 837.815 229.563L834.914 228.279ZM810.204 300.11C804.064 324.286 800.993 348.658 800.993 373.224H804.165C804.165 348.926 807.202 324.815 813.279 300.89L810.204 300.11ZM800.993 373.224V401.283H804.165V373.224H800.993ZM802.579 399.697H737.299V402.869H802.579V399.697Z" fill="url(#paint0_linear_55_100)" fill-opacity="0.5" mask="url(#path-1-outside-1_55_100)"/>
<path d="M-49.3585 386.967L-50.0909 388.374L-50.0794 388.38L-50.0679 388.386L-49.3585 386.967ZM-113.493 319.969L-112.071 319.267V319.267L-113.493 319.969ZM-86.0069 51.9777L-87.1285 50.8561V50.8561L-86.0069 51.9777ZM141.901 18.1924L141.278 19.6515L141.286 19.6547L141.901 18.1924ZM203.745 68.0114L202.429 68.8965L202.437 68.9096L202.446 68.9225L203.745 68.0114ZM226.65 151.616V153.202H228.236V151.616H226.65ZM161.37 151.616H159.784V153.202H161.37V151.616ZM148.2 98.9335L146.852 99.7709V99.7709L148.2 98.9335ZM110.406 66.8661L109.752 68.3114L109.765 68.317L110.406 66.8661ZM-13.8553 72.0198L-13.0776 73.4023L-13.0683 73.397L-13.8553 72.0198ZM-55.6574 118.976L-57.1015 118.319L-57.1064 118.33L-57.1113 118.341L-55.6574 118.976ZM-55.6574 291.91L-57.1113 292.545L-57.1064 292.556L-57.1015 292.567L-55.6574 291.91ZM-13.8553 338.866L-14.633 340.249L-14.6219 340.255L-14.6108 340.261L-13.8553 338.866ZM112.124 343.447L112.736 344.911L112.751 344.905L112.765 344.898L112.124 343.447ZM149.917 311.38L148.587 310.517L148.578 310.53L148.57 310.543L149.917 311.38ZM163.661 258.698V257.112H162.074V258.698H163.661ZM226.65 258.698H228.236V257.112H226.65V258.698ZM203.745 342.875L202.439 341.974L202.434 341.982L202.429 341.99L203.745 342.875ZM141.901 392.121L141.304 390.651L141.297 390.654L141.901 392.121ZM53.1426 406.569C13.2402 406.569 -20.6707 399.538 -48.6491 385.549L-50.0679 388.386C-21.5466 402.647 12.8766 409.741 53.1426 409.741V406.569ZM-48.6261 385.56C-76.1735 371.221 -97.3206 349.146 -112.071 319.267L-114.916 320.672C-99.8891 351.11 -78.2796 373.701 -50.0909 388.374L-48.6261 385.56ZM-112.071 319.267C-126.818 289.394 -134.24 251.289 -134.24 204.87H-137.412C-137.412 251.6 -129.945 290.227 -114.916 320.672L-112.071 319.267ZM-134.24 204.87C-134.24 136.381 -117.687 85.9006 -84.8853 53.0993L-87.1285 50.8561C-120.753 84.4801 -137.412 135.928 -137.412 204.87H-134.24ZM-84.8853 53.0993C-51.6595 19.8735 -5.53032 3.17229 53.7153 3.17229V-0.000106812C-6.14661 -0.000106812 -53.1656 16.8931 -87.1285 50.8561L-84.8853 53.0993ZM53.7153 3.17229C86.3669 3.17229 115.545 8.67705 141.278 19.6515L142.523 16.7334C116.337 5.56601 86.7255 -0.000106812 53.7153 -0.000106812V3.17229ZM141.286 19.6547C167.363 30.6146 187.725 47.0298 202.429 68.8965L205.061 67.1263C189.988 44.7094 169.12 27.9119 142.515 16.7301L141.286 19.6547ZM202.446 68.9225C217.483 90.35 225.064 117.875 225.064 151.616H228.236C228.236 117.404 220.547 89.1928 205.043 67.1002L202.446 68.9225ZM226.65 150.029H161.37V153.202H226.65V150.029ZM162.956 151.616C162.956 130.4 158.52 112.531 149.547 98.0961L146.852 99.7709C155.44 113.586 159.784 130.838 159.784 151.616H162.956ZM149.547 98.0961C140.585 83.6788 127.73 72.7868 111.047 65.4152L109.765 68.317C125.913 75.4522 138.254 85.9385 146.852 99.7709L149.547 98.0961ZM111.06 65.4209C94.7812 58.0569 75.8442 54.3999 54.2879 54.3999V57.5723C75.4881 57.5723 93.963 61.1687 109.752 68.3113L111.06 65.4209ZM54.2879 54.3999C27.3547 54.3999 4.35457 59.7872 -14.6423 70.6426L-13.0683 73.397C5.34677 62.8741 27.7755 57.5723 54.2879 57.5723V54.3999ZM-14.633 70.6373C-33.2794 81.1259 -47.4324 97.0474 -57.1015 118.319L-54.2134 119.632C-44.7947 98.9108 -31.0797 83.5284 -13.0777 73.4023L-14.633 70.6373ZM-57.1113 118.341C-66.3891 139.603 -70.9868 166.561 -70.9868 199.144H-67.8144C-67.8144 166.829 -63.25 140.341 -54.2036 119.61L-57.1113 118.341ZM-70.9868 199.144V211.742H-67.8144V199.144H-70.9868ZM-70.9868 211.742C-70.9868 244.325 -66.3891 271.283 -57.1113 292.545L-54.2036 291.276C-63.25 270.545 -67.8144 244.057 -67.8144 211.742H-70.9868ZM-57.1015 292.567C-47.4324 313.839 -33.2794 329.76 -14.633 340.249L-13.0777 337.484C-31.0797 327.358 -44.7947 311.975 -54.2134 291.254L-57.1015 292.567ZM-14.6108 340.261C4.00478 350.344 26.9964 355.341 54.2879 355.341V352.169C27.3702 352.169 4.93306 347.239 -13.0998 337.472L-14.6108 340.261ZM54.2879 355.341C76.5903 355.341 96.0857 351.881 112.736 344.911L111.511 341.984C95.3309 348.757 76.2691 352.169 54.2879 352.169V355.341ZM112.765 344.898C129.448 337.527 142.302 326.635 151.265 312.217L148.57 310.543C139.972 324.375 127.631 334.861 111.483 341.996L112.765 344.898ZM151.248 312.243C160.614 297.804 165.247 279.925 165.247 258.698H162.074C162.074 279.464 157.545 296.706 148.587 310.517L151.248 312.243ZM163.661 260.284H226.65V257.112H163.661V260.284ZM225.064 258.698C225.064 292.437 217.484 320.159 202.439 341.974L205.051 343.775C220.546 321.307 228.236 292.911 228.236 258.698H225.064ZM202.429 341.99C187.728 363.852 167.373 380.073 141.304 390.651L142.497 393.591C169.111 382.791 189.985 366.181 205.061 343.76L202.429 341.99ZM141.297 390.654C115.561 401.252 86.1854 406.569 53.1426 406.569V409.741C86.5252 409.741 116.322 404.369 142.505 393.588L141.297 390.654ZM298.005 401.283H296.419V402.869H298.005V401.283ZM298.005 8.45766V6.87144H296.419V8.45766H298.005ZM563.707 20.4829L563.011 21.9082L563.024 21.9148L563.038 21.9212L563.707 20.4829ZM602.073 53.6956L600.732 54.5426L600.74 54.5551L600.748 54.5674L602.073 53.6956ZM607.799 145.317L606.363 144.643L606.354 144.662L606.346 144.681L607.799 145.317ZM584.894 176.239L583.869 175.028L583.858 175.038L583.846 175.048L584.894 176.239ZM552.254 195.136L551.738 193.636L550.668 194.004V195.136H552.254ZM552.254 197.426H550.668V198.706L551.919 198.977L552.254 197.426ZM590.048 214.605L589.089 215.869L589.113 215.887L589.138 215.905L590.048 214.605ZM616.961 246.673L615.535 247.366L615.547 247.39L615.56 247.415L616.961 246.673ZM610.662 354.9L609.357 353.999L609.35 354.009L609.343 354.02L610.662 354.9ZM567.715 390.403L568.31 391.874L568.323 391.868L568.336 391.863L567.715 390.403ZM362.14 346.311H360.554V347.897H362.14V346.311ZM544.237 332.567L545.248 333.789L545.253 333.786L544.237 332.567ZM553.972 254.689L552.553 255.399L552.571 255.435L552.591 255.47L553.972 254.689ZM532.785 234.075L532.053 235.482L532.075 235.494L532.098 235.505L532.785 234.075ZM362.14 226.63V225.044H360.554V226.63H362.14ZM362.14 172.803H360.554V174.389H362.14V172.803ZM523.05 165.931L523.784 167.338V167.338L523.05 165.931ZM543.092 146.462L541.726 145.655L541.712 145.678L541.699 145.702L543.092 146.462ZM535.075 77.1735L533.999 78.339L534.022 78.3605L534.046 78.381L535.075 77.1735ZM362.14 63.4303V61.8441H360.554V63.4303H362.14ZM299.592 401.283V8.45766H296.419V401.283H299.592ZM298.005 10.0439H506.443V6.87144H298.005V10.0439ZM506.443 10.0439C528.008 10.0439 546.849 14.0156 563.011 21.9082L564.403 19.0576C547.733 10.9165 528.399 6.87144 506.443 6.87144V10.0439ZM563.038 21.9212C579.193 29.4353 591.742 40.308 600.732 54.5426L603.414 52.8486C594.08 38.0698 581.051 26.8008 564.376 19.0447L563.038 21.9212ZM600.748 54.5674C610.101 68.7845 614.803 85.4614 614.803 104.66H617.975C617.975 84.9194 613.133 67.62 603.398 52.8238L600.748 54.5674ZM614.803 104.66C614.803 119.34 611.981 132.659 606.363 144.643L609.236 145.99C615.07 133.542 617.975 119.757 617.975 104.66H614.803ZM606.346 144.681C601.096 156.681 593.605 166.79 583.869 175.028L585.919 177.45C596.034 168.891 603.813 158.385 609.253 145.952L606.346 144.681ZM583.846 175.048C574.46 183.308 563.762 189.503 551.738 193.636L552.77 196.636C565.178 192.37 576.24 185.967 585.942 177.43L583.846 175.048ZM550.668 195.136V197.426H553.84V195.136H550.668ZM551.919 198.977C565.827 201.984 578.21 207.616 589.089 215.869L591.006 213.341C579.744 204.797 566.931 198.977 552.589 195.876L551.919 198.977ZM589.138 215.905C600.356 223.757 609.155 234.231 615.535 247.366L618.388 245.98C611.788 232.391 602.645 221.487 590.957 213.306L589.138 215.905ZM615.56 247.415C622.284 260.116 625.683 275.5 625.683 293.628H628.855C628.855 275.108 625.382 259.189 618.363 245.93L615.56 247.415ZM625.683 293.628C625.683 318.208 620.201 338.294 609.357 353.999L611.968 355.801C623.266 339.438 628.855 318.676 628.855 293.628H625.683ZM609.343 354.02C598.827 369.793 584.756 381.428 567.094 388.944L568.336 391.863C586.559 384.108 601.12 372.074 611.982 355.78L609.343 354.02ZM567.121 388.933C549.398 396.097 529.182 399.697 506.443 399.697V402.869C529.516 402.869 550.147 399.216 568.31 391.874L567.121 388.933ZM506.443 399.697H298.005V402.869H506.443V399.697ZM362.14 347.897H501.29V344.724H362.14V347.897ZM501.29 347.897C519.135 347.897 533.834 343.236 545.248 333.789L543.226 331.345C532.499 340.223 518.566 344.724 501.29 344.724V347.897ZM545.253 333.786C557.197 323.832 563.002 308.023 563.002 286.757H559.83C559.83 307.483 554.183 322.215 543.222 331.349L545.253 333.786ZM563.002 286.757C563.002 273.953 560.48 262.98 555.353 253.909L552.591 255.47C557.39 263.96 559.83 274.365 559.83 286.757H563.002ZM555.391 253.98C550.647 244.492 543.321 237.373 533.471 232.645L532.098 235.505C541.336 239.939 548.135 246.563 552.553 255.399L555.391 253.98ZM533.516 232.667C523.682 227.553 511.385 225.044 496.709 225.044V228.217C511.045 228.217 522.8 230.67 532.053 235.482L533.516 232.667ZM496.709 225.044H362.14V228.217H496.709V225.044ZM360.554 226.63V346.311H363.726V226.63H360.554ZM362.14 174.389H491.555V171.217H362.14V174.389ZM491.555 174.389C503.968 174.389 514.73 172.061 523.784 167.338L522.316 164.525C513.809 168.964 503.574 171.217 491.555 171.217V174.389ZM523.784 167.338C532.832 162.617 539.747 155.906 544.484 147.222L541.699 145.702C537.274 153.815 530.828 160.084 522.316 164.525L523.784 167.338ZM544.458 147.269C549.573 138.612 552.122 128.978 552.122 118.403H548.95C548.95 128.443 546.536 137.515 541.726 145.655L544.458 147.269ZM552.122 118.403C552.122 99.4179 546.885 85.1503 536.104 75.966L534.046 78.381C543.88 86.7574 548.95 99.9762 548.95 118.403H552.122ZM536.151 76.0079C525.872 66.5197 512.287 61.8441 495.563 61.8441V65.0165C511.671 65.0165 524.427 69.503 533.999 78.339L536.151 76.0079ZM495.563 61.8441H362.14V65.0165H495.563V61.8441ZM360.554 63.4303V172.803H363.726V63.4303H360.554ZM737.299 401.283H735.713V402.869H737.299V401.283ZM749.897 302.79L751.43 303.197L751.431 303.192L749.897 302.79ZM783.682 211.742L782.264 211.033L782.26 211.04L783.682 211.742ZM830.638 131.001L829.328 130.107L829.325 130.112L830.638 131.001ZM881.602 63.4303L882.813 64.4549L885.022 61.8441H881.602V63.4303ZM677.745 63.4303H676.159V65.0165H677.745V63.4303ZM677.745 8.45766V6.87144H676.159V8.45766H677.745ZM956.045 8.45766H957.631V6.87144H956.045V8.45766ZM956.045 46.824L957.263 47.8395L957.631 47.3983V46.824H956.045ZM914.242 100.079L915.505 101.039L915.51 101.033L915.514 101.027L914.242 100.079ZM872.44 161.35L873.792 162.18V162.18L872.44 161.35ZM836.364 228.921L834.923 228.259L834.918 228.269L834.914 228.279L836.364 228.921ZM811.741 300.5L813.279 300.89L813.28 300.885L811.741 300.5ZM802.579 401.283V402.869H804.165V401.283H802.579ZM738.885 401.283C738.885 367.439 743.068 334.745 751.43 303.197L748.364 302.384C739.929 334.207 735.713 367.175 735.713 401.283H738.885ZM751.431 303.192C759.804 271.225 771.029 240.976 785.105 212.444L782.26 211.04C768.086 239.771 756.787 270.222 748.363 302.389L751.431 303.192ZM785.101 212.451C799.579 183.495 815.196 156.642 831.952 131.89L829.325 130.112C812.485 154.988 796.799 181.962 782.264 211.033L785.101 212.451ZM831.949 131.894C849.102 106.737 866.057 84.2578 882.813 64.4549L880.391 62.4057C863.553 82.3053 846.532 104.874 829.328 130.107L831.949 131.894ZM881.602 61.8441H677.745V65.0165H881.602V61.8441ZM679.332 63.4303V8.45766H676.159V63.4303H679.332ZM677.745 10.0439H956.045V6.87144H677.745V10.0439ZM954.458 8.45766V46.824H957.631V8.45766H954.458ZM954.826 45.8085C941.443 61.8675 927.492 79.6421 912.97 99.1311L915.514 101.027C930.006 81.5765 943.923 63.8479 957.263 47.8395L954.826 45.8085ZM912.979 99.119C898.439 118.251 884.476 138.719 871.089 160.52L873.792 162.18C887.128 140.462 901.032 120.082 915.505 101.039L912.979 99.119ZM871.089 160.52C857.694 182.335 845.638 204.915 834.923 228.259L837.806 229.583C848.469 206.353 860.464 183.886 873.792 162.18L871.089 160.52ZM834.914 228.279C824.57 251.648 816.333 275.594 810.202 300.115L813.28 300.885C819.366 276.542 827.544 252.768 837.815 229.563L834.914 228.279ZM810.204 300.11C804.064 324.286 800.993 348.658 800.993 373.224H804.165C804.165 348.926 807.202 324.815 813.279 300.89L810.204 300.11ZM800.993 373.224V401.283H804.165V373.224H800.993ZM802.579 399.697H737.299V402.869H802.579V399.697Z" fill="url(#paint1_linear_55_100)" mask="url(#path-1-outside-1_55_100)"/>
</g>
<defs>
<linearGradient id="paint0_linear_55_100" x1="109.688" y1="-858.172" x2="1212.69" y2="-314.572" gradientUnits="userSpaceOnUse">
<stop stop-color="#00B4FD"/>
<stop offset="1" stop-color="#003ACE"/>
</linearGradient>
<linearGradient id="paint1_linear_55_100" x1="282.563" y1="378.073" x2="459.095" y2="-79.7071" gradientUnits="userSpaceOnUse">
<stop stop-color="#02171F"/>
<stop offset="1" stop-opacity="0"/>
</linearGradient>
</defs>
</svg>
