<svg width="47" height="49" viewBox="0 0 47 49" fill="none" xmlns="http://www.w3.org/2000/svg">
<path d="M27.5303 25.6814C30.967 27.7839 33.1898 31.4738 33.334 35.5974L33.3408 36.0417C33.4328 42.6128 27.7455 48.3226 21.0918 48.1619L21.085 48.1609C16.6567 48.1082 12.7881 45.7249 10.6816 42.0505C19.9757 43.3891 28.5976 34.9498 27.5303 25.6814ZM6.39551 16.6453C4.97566 24.4949 10.5037 32.5543 18.3955 33.9216L18.4385 33.9294H18.4463C19.7495 34.1745 21.1514 34.2416 22.5039 34.1267C18.4878 40.0733 9.03227 41.0589 3.99805 35.7175L3.98633 35.7048L3.97363 35.6941L3.70703 35.4373C1.00296 32.7472 0.0587785 28.817 0.685547 25.114C1.27712 21.6191 3.25787 18.3893 6.39551 16.6453ZM27.2754 15.2634C31.1006 14.5683 35.2042 15.5742 37.9961 18.5427L38.0195 18.5662C40.8339 21.1891 41.8942 25.0958 41.3721 28.8113C40.894 32.2125 39.0967 35.3956 36.1816 37.2419C36.5292 32.9974 35.0015 28.729 32.1416 25.738C28.8369 22.1442 23.6374 20.4078 18.8174 21.2009C20.5331 17.9686 23.76 15.9023 27.2754 15.2634ZM9.08398 19.1707C9.05868 7.25403 24.6205 2.73305 31.1387 12.1873C21.6239 10.9218 12.9943 19.8908 14.5449 29.3015C11.3005 27.1606 9.22842 23.5805 9.09082 19.5945L9.08398 19.1707Z" stroke="url(#paint0_linear_24_4033)"/>
<defs>
<linearGradient id="paint0_linear_24_4033" x1="10.0491" y1="-37.7615" x2="56.4399" y2="-24.0172" gradientUnits="userSpaceOnUse">
<stop stop-color="white"/>
<stop offset="1" stop-color="#8B8B8B"/>
</linearGradient>
</defs>
</svg>
