<svg width="38" height="38" viewBox="0 0 38 38" fill="none" xmlns="http://www.w3.org/2000/svg">
<path d="M3.25488 1.43262C5.12118 0.213006 7.60622 0.192248 9.49902 1.35547L9.68066 1.47168C11.6067 2.75939 12.4887 4.83655 12.3438 6.85742C12.2151 8.63676 12.7452 10.4308 14.041 11.7266L14.7412 12.4268C17.057 14.7424 20.8103 14.7425 23.126 12.4268L23.8301 11.7227C24.9964 10.5562 25.6188 8.95879 25.5557 7.32031L25.5342 6.99219C25.3726 5.2946 25.9384 3.54514 27.2363 2.24902C29.8428 -0.359245 34.2777 -0.0285859 36.4258 3.24805C37.6863 5.17056 37.6724 7.75585 36.3965 9.6709C35.1085 11.6029 33.0272 12.4887 31.0049 12.3418C29.2274 12.2132 27.4334 12.7433 26.1377 14.0391L25.4375 14.7393C23.1222 17.0549 23.1222 20.8074 25.4375 23.123L26.1377 23.8242C27.3527 25.0392 29.0072 25.5802 30.6738 25.5371L31.0068 25.5205C32.999 25.3757 35.0453 26.2338 36.3369 28.1045L36.3916 28.1855C37.671 30.0983 37.6869 32.6845 36.4297 34.6113C34.2855 37.8948 29.8448 38.2277 27.2344 35.6172H27.2354C25.9385 34.3185 25.3707 32.5711 25.5322 30.874C25.6977 29.1223 25.0722 27.3877 23.8281 26.1436L23.124 25.4395C20.8084 23.1238 17.055 23.124 14.7393 25.4395L14.0352 26.1436C12.791 27.3877 12.1656 29.1223 12.3311 30.874C12.4926 32.5714 11.9262 34.3189 10.6279 35.6172C8.01766 38.2293 3.57694 37.895 1.43262 34.6113C0.173783 32.6849 0.192088 30.0986 1.47168 28.1855L1.4707 28.1846C2.76082 26.2582 4.83752 25.3757 6.85742 25.5225C8.6367 25.6511 10.4308 25.1219 11.7266 23.8262L12.4268 23.125C14.67 20.8815 14.7401 17.2895 12.6367 14.9619L12.4268 14.7412L11.7227 14.0352L11.4834 13.8086C10.3428 12.7883 8.8495 12.2496 7.32031 12.3086L6.99219 12.3311C5.29676 12.4926 3.54732 11.9262 2.24902 10.6279C-0.279898 8.09895 -0.0464292 3.85284 2.95605 1.64062L3.25488 1.43262Z" stroke="url(#paint0_linear_24_4046)"/>
<defs>
<linearGradient id="paint0_linear_24_4046" x1="9.0592" y1="-39.9177" x2="50.868" y2="-27.5085" gradientUnits="userSpaceOnUse">
<stop stop-color="white"/>
<stop offset="1" stop-color="#8B8B8B"/>
</linearGradient>
</defs>
</svg>
