<svg width="258" height="219" viewBox="0 0 258 219" fill="none" xmlns="http://www.w3.org/2000/svg">
<path d="M71.2106 0L82.5275 11.3215L67.3274 26.5216C62.1605 31.693 55.3192 34.3102 48.5451 34.3012C41.7756 34.3102 34.9297 31.693 29.7627 26.5216L14.5626 11.3215L25.8797 0L41.0797 15.2001C43.1626 17.274 45.8158 18.2841 48.5406 18.2931C51.2655 18.2841 53.9185 17.2785 56.0014 15.2001L71.2016 0H71.2106ZM97.0946 71.206L81.8946 56.0059C79.8207 53.923 78.815 51.27 78.8061 48.5451C78.815 45.8157 79.8207 43.1627 81.8946 41.0842L97.0946 25.8841L85.7776 14.5626L70.5775 29.7627C65.4061 34.9297 62.789 41.7755 62.798 48.5451C62.789 55.3146 65.4061 62.1605 70.5775 67.323L85.7776 82.523L97.0991 71.206H97.0946ZM25.8842 97.0901L41.0842 81.8901C43.1671 79.8116 45.8158 78.8061 48.5451 78.7971C51.27 78.8061 53.923 79.8116 56.0059 81.8901L71.2061 97.0901L82.5275 85.7686L67.3274 70.5686C62.1605 65.3971 55.3192 62.78 48.5451 62.789C41.7756 62.78 34.9297 65.3971 29.7627 70.5686L14.5626 85.7686L25.8842 97.0901ZM0 25.8841L15.2001 41.0842C17.2741 43.1671 18.2796 45.8202 18.2886 48.5451C18.2796 51.27 17.2741 53.923 15.2001 56.0059L0 71.206L11.3215 82.5275L26.5216 67.3275C31.693 62.1605 34.3102 55.3191 34.3012 48.5496C34.3102 41.78 31.693 34.9341 26.5216 29.7672L11.3215 14.5671L0 25.8886V25.8841Z" fill="#00B4FD"/>
<path d="M231.31 0L242.627 11.3215L227.427 26.5216C222.26 31.693 215.418 34.3102 208.644 34.3012C201.875 34.3102 195.029 31.693 189.862 26.5216L174.662 11.3215L185.979 0L201.179 15.2001C203.262 17.274 205.915 18.2841 208.64 18.2931C211.365 18.2841 214.018 17.2785 216.101 15.2001L231.301 0H231.31ZM257.194 71.206L241.994 56.0059C239.92 53.923 238.914 51.27 238.905 48.5451C238.914 45.8157 239.92 43.1627 241.994 41.0842L257.194 25.8841L245.877 14.5626L230.677 29.7627C225.505 34.9297 222.888 41.7755 222.897 48.5451C222.888 55.3146 225.505 62.1605 230.677 67.323L245.877 82.523L257.198 71.206H257.194ZM185.983 97.0901L201.183 81.8901C203.266 79.8116 205.915 78.8061 208.644 78.7971C211.369 78.8061 214.022 79.8116 216.105 81.8901L231.305 97.0901L242.627 85.7686L227.427 70.5686C222.26 65.3971 215.418 62.78 208.644 62.789C201.875 62.78 195.029 65.3971 189.862 70.5686L174.662 85.7686L185.983 97.0901ZM160.099 25.8841L175.299 41.0842C177.373 43.1671 178.379 45.8202 178.388 48.5451C178.379 51.27 177.373 53.923 175.299 56.0059L160.099 71.206L171.421 82.5275L186.621 67.3275C191.792 62.1605 194.409 55.3191 194.4 48.5496C194.409 41.78 191.792 34.9341 186.621 29.7672L171.421 14.5671L160.099 25.8886V25.8841Z" fill="#00B4FD"/>
<path d="M71.2106 121.09L82.5275 132.412L67.3274 147.612C62.1605 152.783 55.3192 155.4 48.5451 155.391C41.7756 155.4 34.9297 152.783 29.7627 147.612L14.5626 132.412L25.8797 121.09L41.0797 136.29C43.1626 138.364 45.8158 139.374 48.5406 139.383C51.2655 139.374 53.9185 138.369 56.0014 136.29L71.2016 121.09H71.2106ZM97.0946 192.296L81.8946 177.096C79.8207 175.013 78.815 172.36 78.8061 169.635C78.815 166.906 79.8207 164.253 81.8946 162.174L97.0946 146.974L85.7776 135.653L70.5775 150.853C65.4061 156.02 62.789 162.866 62.798 169.635C62.789 176.405 65.4061 183.251 70.5775 188.413L85.7776 203.613L97.0991 192.296H97.0946ZM25.8842 218.18L41.0842 202.98C43.1671 200.902 45.8158 199.896 48.5451 199.887C51.27 199.896 53.923 200.902 56.0059 202.98L71.2061 218.18L82.5275 206.859L67.3274 191.659C62.1605 186.487 55.3192 183.87 48.5451 183.879C41.7756 183.87 34.9297 186.487 29.7627 191.659L14.5626 206.859L25.8842 218.18ZM0 146.974L15.2001 162.174C17.2741 164.257 18.2796 166.91 18.2886 169.635C18.2796 172.36 17.2741 175.013 15.2001 177.096L0 192.296L11.3215 203.618L26.5216 188.418C31.693 183.251 34.3102 176.409 34.3012 169.64C34.3102 162.87 31.693 156.024 26.5216 150.857L11.3215 135.657L0 146.979V146.974Z" fill="#00B4FD"/>
<path d="M231.31 121.09L242.627 132.412L227.427 147.612C222.26 152.783 215.418 155.4 208.644 155.391C201.875 155.4 195.029 152.783 189.862 147.612L174.662 132.412L185.979 121.09L201.179 136.29C203.262 138.364 205.915 139.374 208.64 139.383C211.365 139.374 214.018 138.369 216.101 136.29L231.301 121.09H231.31ZM257.194 192.296L241.994 177.096C239.92 175.013 238.914 172.36 238.905 169.635C238.914 166.906 239.92 164.253 241.994 162.174L257.194 146.974L245.877 135.653L230.677 150.853C225.505 156.02 222.888 162.866 222.897 169.635C222.888 176.405 225.505 183.251 230.677 188.413L245.877 203.613L257.198 192.296H257.194ZM185.983 218.18L201.183 202.98C203.266 200.902 205.915 199.896 208.644 199.887C211.369 199.896 214.022 200.902 216.105 202.98L231.305 218.18L242.627 206.859L227.427 191.659C222.26 186.487 215.418 183.87 208.644 183.879C201.875 183.87 195.029 186.487 189.862 191.659L174.662 206.859L185.983 218.18ZM160.099 146.974L175.299 162.174C177.373 164.257 178.379 166.91 178.388 169.635C178.379 172.36 177.373 175.013 175.299 177.096L160.099 192.296L171.421 203.618L186.621 188.418C191.792 183.251 194.409 176.409 194.4 169.64C194.409 162.87 191.792 156.024 186.621 150.857L171.421 135.657L160.099 146.979V146.974Z" fill="#00B4FD"/>
</svg>
