<svg width="269" height="49" viewBox="0 0 269 49" fill="none" xmlns="http://www.w3.org/2000/svg">
<path d="M17.9908 10.7429C17.8601 15.5046 15.8685 19.8273 12.7272 22.9656L12.7262 22.9666C9.58799 26.1096 5.26518 28.0996 0.501587 28.2302V23.0662C3.8539 22.9373 6.85355 21.5352 9.07581 19.3181L9.07678 19.3171C11.2937 17.0951 12.6973 14.0955 12.8248 10.7429H17.9908Z" stroke="url(#paint0_linear_24_4051)"/>
<path d="M25.9342 10.7429C26.063 14.0953 27.4651 17.0949 29.6822 19.3171V19.3181C31.9028 21.5353 34.9047 22.9387 38.2574 23.0662V28.2302C33.4939 28.1011 29.1712 26.1097 26.0328 22.9666L26.0318 22.9656C22.8906 19.8291 20.8998 15.505 20.7691 10.7429H25.9342Z" stroke="url(#paint1_linear_24_4051)"/>
<path d="M38.2591 36.176C35.1263 36.2964 32.3013 37.529 30.1311 39.4993L29.6839 39.925C27.4667 42.1457 26.0632 45.1475 25.9358 48.5002H20.7708C20.8999 43.7368 22.892 39.414 26.0335 36.2756L26.0345 36.2747C29.1727 33.1333 33.4969 31.1425 38.2591 31.012V36.176Z" stroke="url(#paint2_linear_24_4051)"/>
<path d="M0.501953 31.012C5.2646 31.1416 9.58669 33.1336 12.7246 36.2747L12.7256 36.2756C15.8685 39.4139 17.8587 43.7367 17.9893 48.5002H12.8242C12.6954 45.1478 11.2943 42.1474 9.07715 39.925H9.07617C6.85564 37.7079 3.85451 36.3036 0.501953 36.176V31.012Z" stroke="url(#paint3_linear_24_4051)"/>
<path opacity="0.6" d="M209.542 45V35.396H210.998L213.938 41.206L214.456 42.326H214.512V35.396H215.884V45H214.414L211.376 39.064L210.956 38.098L210.9 38.112V45H209.542ZM217.937 45V35.396H221.913C222.435 35.396 222.883 35.494 223.257 35.69C223.63 35.886 223.919 36.1613 224.125 36.516C224.33 36.8613 224.433 37.2533 224.433 37.692C224.433 38.168 224.349 38.5647 224.181 38.882C224.013 39.19 223.798 39.4327 223.537 39.61C223.275 39.778 223.009 39.8993 222.739 39.974V40.058C222.916 40.086 223.112 40.1467 223.327 40.24C223.541 40.324 223.751 40.4547 223.957 40.632C224.162 40.8 224.33 41.0333 224.461 41.332C224.591 41.6307 224.657 41.9993 224.657 42.438C224.657 42.914 224.54 43.348 224.307 43.74C224.083 44.132 223.77 44.44 223.369 44.664C222.967 44.888 222.51 45 221.997 45H217.937ZM219.323 43.81H221.661C221.959 43.81 222.225 43.74 222.459 43.6C222.692 43.46 222.874 43.2687 223.005 43.026C223.145 42.7833 223.215 42.522 223.215 42.242C223.215 41.9247 223.145 41.6493 223.005 41.416C222.865 41.1733 222.673 40.9867 222.431 40.856C222.197 40.7253 221.941 40.66 221.661 40.66H219.323V43.81ZM219.323 39.526H221.507C221.787 39.526 222.039 39.4607 222.263 39.33C222.496 39.1993 222.673 39.0173 222.795 38.784C222.925 38.5413 222.991 38.2753 222.991 37.986C222.991 37.5287 222.879 37.174 222.655 36.922C222.431 36.6607 222.099 36.53 221.661 36.53H219.323V39.526ZM226.513 45V35.396H232.575L232.393 36.6H227.969V39.596H231.833V40.758H227.969V45H226.513ZM237.806 45.14C237.292 45.14 236.816 45.0653 236.378 44.916C235.948 44.7667 235.57 44.5287 235.244 44.202C234.917 43.866 234.66 43.4227 234.474 42.872C234.296 42.3213 234.208 41.6447 234.208 40.842V39.554C234.208 38.7513 234.301 38.0747 234.488 37.524C234.674 36.9733 234.931 36.5347 235.258 36.208C235.584 35.872 235.962 35.6293 236.392 35.48C236.83 35.3307 237.297 35.256 237.792 35.256H237.988C238.716 35.256 239.336 35.396 239.85 35.676C240.372 35.956 240.769 36.3807 241.04 36.95C241.31 37.51 241.446 38.2147 241.446 39.064H240.032C240.032 38.448 239.962 37.9487 239.822 37.566C239.691 37.174 239.467 36.8893 239.15 36.712C238.832 36.5253 238.408 36.432 237.876 36.432C237.568 36.432 237.283 36.4787 237.022 36.572C236.77 36.656 236.546 36.8053 236.35 37.02C236.154 37.2253 236 37.51 235.888 37.874C235.776 38.238 235.72 38.6953 235.72 39.246V41.136C235.72 41.6867 235.776 42.1487 235.888 42.522C236 42.886 236.154 43.1753 236.35 43.39C236.546 43.5953 236.77 43.7447 237.022 43.838C237.283 43.922 237.568 43.964 237.876 43.964C238.678 43.964 239.243 43.7587 239.57 43.348C239.906 42.928 240.074 42.2607 240.074 41.346H241.446C241.446 42.1673 241.31 42.858 241.04 43.418C240.769 43.978 240.377 44.4073 239.864 44.706C239.35 44.9953 238.73 45.14 238.002 45.14H237.806Z" fill="#E9F4F9"/>
<defs>
<linearGradient id="paint0_linear_24_4051" x1="4.42716" y1="-9.26028" x2="24.8519" y2="-3.19889" gradientUnits="userSpaceOnUse">
<stop stop-color="white"/>
<stop offset="1" stop-color="#8B8B8B"/>
</linearGradient>
<linearGradient id="paint1_linear_24_4051" x1="24.6875" y1="-9.26028" x2="45.1106" y2="-3.19993" gradientUnits="userSpaceOnUse">
<stop stop-color="white"/>
<stop offset="1" stop-color="#8B8B8B"/>
</linearGradient>
<linearGradient id="paint2_linear_24_4051" x1="24.6891" y1="11.0019" x2="45.1123" y2="17.0623" gradientUnits="userSpaceOnUse">
<stop stop-color="white"/>
<stop offset="1" stop-color="#8B8B8B"/>
</linearGradient>
<linearGradient id="paint3_linear_24_4051" x1="4.42558" y1="11.0019" x2="24.8503" y2="17.0633" gradientUnits="userSpaceOnUse">
<stop stop-color="white"/>
<stop offset="1" stop-color="#8B8B8B"/>
</linearGradient>
</defs>
</svg>
