<svg width="47" height="49" viewBox="0 0 47 49" fill="none" xmlns="http://www.w3.org/2000/svg">
<path d="M19.3779 35.6545H19.3789C21.955 35.6511 24.5573 36.6457 26.5225 38.6125V38.6135L32.2363 44.3274L28.4238 48.1389L22.71 42.425L22.5322 42.2571C21.6317 41.4436 20.5172 41.0479 19.3799 41.0442H19.377C18.2377 41.0479 17.124 41.4435 16.2236 42.2571L16.0469 42.425L10.332 48.1389L6.51953 44.3274L12.2344 38.6135V38.6125C14.1995 36.6459 16.8037 35.6511 19.3779 35.6545ZM10.2334 22.3264C12.2001 24.2914 13.1957 26.8948 13.1924 29.469V29.4709C13.1955 31.8843 12.3209 34.3221 10.5908 36.2366L10.2334 36.6125L4.51953 42.3264L0.707031 38.5139L6.42188 32.7991C7.34692 31.87 7.79678 30.683 7.80078 29.47V29.467C7.79678 28.254 7.34701 27.0661 6.42188 26.137H6.4209L0.707031 20.4231L4.51855 16.6116L10.2334 22.3264ZM38.0508 20.4211L32.3369 26.137C31.4113 27.0646 30.962 28.2524 30.958 29.467V29.47C30.962 30.6829 31.411 31.87 32.3359 32.7991L38.0508 38.5139L34.2412 42.3245L28.5264 36.6106L28.1689 36.2346C26.4392 34.3215 25.5642 31.8824 25.5674 29.469V29.468C25.564 26.8937 26.5596 24.2896 28.5264 22.3245L34.2402 16.6106L38.0508 20.4211ZM32.2363 14.6086L26.5225 20.3235C24.5573 22.2903 21.955 23.2859 19.3789 23.2825H19.3779C16.9645 23.2857 14.525 22.4108 12.6104 20.6809L12.2344 20.3235L6.51953 14.6086L10.3311 10.7971L16.0449 16.511V16.512C16.9737 17.4367 18.1614 17.8878 19.375 17.8918H19.3779C20.5911 17.8878 21.7788 17.4391 22.708 16.512V16.511L28.4229 10.7952L32.2363 14.6086Z" stroke="url(#paint0_linear_24_4064)"/>
<defs>
<linearGradient id="paint0_linear_24_4064" x1="9.27389" y1="-30.7793" x2="52.0744" y2="-18.0776" gradientUnits="userSpaceOnUse">
<stop stop-color="white"/>
<stop offset="1" stop-color="#8B8B8B"/>
</linearGradient>
</defs>
</svg>
