<svg width="47" height="49" viewBox="0 0 47 49" fill="none" xmlns="http://www.w3.org/2000/svg">
<path d="M35.243 10.4929C36.0573 10.4929 36.8156 10.602 37.5047 10.8396C38.1063 11.0471 38.6549 11.3577 39.1209 11.7703L39.3162 11.9539C39.8227 12.4584 40.1932 13.0772 40.4305 13.7654C40.6384 14.3684 40.7472 15.0243 40.7713 15.7244L40.7772 16.0271C40.7667 18.7335 39.6059 22.0352 37.5428 25.6462C36.8249 26.8969 35.9955 28.1801 35.0662 29.4783L34.9617 29.6238L35.0662 29.7693C35.9945 31.064 36.8233 32.3478 37.5408 33.5974V33.5984C39.6043 37.2099 40.766 40.5142 40.7742 43.2185L40.7693 43.5212C40.7452 44.2213 40.6364 44.8773 40.4285 45.4802H40.4276C40.1925 46.1675 39.8212 46.7868 39.3162 47.2917C38.8116 47.7963 38.1928 48.1658 37.5047 48.4031C36.8156 48.6407 36.0573 48.7488 35.243 48.7488C32.7055 48.7391 29.6443 47.7201 26.2957 45.8923L25.6229 45.5164C24.3722 44.7985 23.0876 43.9689 21.7918 43.0398L21.6463 42.9353L21.5008 43.0398C20.2049 43.969 18.9195 44.7984 17.6688 45.5164C14.0572 47.5798 10.7529 48.7407 8.04864 48.7488C7.23463 48.7487 6.47684 48.6406 5.7879 48.4031H5.78693C5.09976 48.1681 4.48127 47.7966 3.97638 47.2917L3.9754 47.2908C3.46914 46.7863 3.09936 46.1681 2.86212 45.4802C2.62459 44.7914 2.51556 44.0334 2.51544 43.2195C2.52492 40.6838 3.545 37.6202 5.37286 34.2712L5.74884 33.5984C6.46664 32.3479 7.2962 31.0654 8.2254 29.7673L8.32989 29.6218L8.2254 29.4753C7.29637 28.1796 6.46669 26.8949 5.74884 25.6443H5.74786C3.6849 22.0333 2.52383 18.7291 2.51544 16.0251C2.51544 15.2109 2.62456 14.4525 2.86212 13.7634C3.09937 13.0774 3.47097 12.4564 3.9754 11.9539L3.97638 11.9529C4.48089 11.4465 5.09984 11.0769 5.7879 10.8396C6.47681 10.6021 7.23466 10.493 8.04864 10.4929C10.7551 10.5031 14.0574 11.6631 17.6688 13.7263C18.9194 14.4442 20.2026 15.2736 21.5008 16.2029L21.6463 16.3074L21.7918 16.2029C22.7635 15.5062 23.729 14.8655 24.6785 14.2859L25.6229 13.7263C29.2343 11.663 32.5387 10.5012 35.243 10.4929ZM8.97931 31.0349C8.21375 32.1312 7.52403 33.214 6.91974 34.2683C4.9261 37.7296 3.85604 40.9256 3.86407 43.2175C3.86195 43.9112 3.95825 44.5235 4.13653 45.0408C4.31537 45.5616 4.5765 45.9885 4.92853 46.3406L4.93048 46.3416C5.28388 46.6904 5.7075 46.9516 6.22833 47.1326L6.22931 47.1335C6.74696 47.3119 7.35918 47.406 8.05157 47.406C10.3051 47.4141 13.4348 46.3752 16.8348 44.4421L16.8387 44.446L17.0027 44.3523C18.0572 43.748 19.1397 43.0583 20.2361 42.2927L20.5154 42.0984L20.2459 41.8904C18.3149 40.3984 16.3727 38.6909 14.4754 36.7957H14.4764C12.5792 34.8984 10.8737 32.9562 9.38165 31.0251L9.17364 30.7566L8.97931 31.0349ZM33.9168 31.0212C32.4248 32.9522 30.7174 34.8944 28.8221 36.7917C26.9249 38.6889 24.9826 40.3935 23.0516 41.8855L22.783 42.0935L23.0613 42.2888C24.1577 43.0544 25.2391 43.744 26.2938 44.3484V44.3474C29.7553 46.3411 32.951 47.4104 35.243 47.4021C35.9347 47.4021 36.5475 47.3116 37.0662 47.1306C37.5858 46.95 38.0125 46.6911 38.3651 46.3386L38.366 46.3376C38.6957 46.0058 38.9423 45.6118 39.1209 45.1355L39.1287 45.1326L39.1619 45.0369C39.3181 44.5837 39.4091 44.0579 39.4295 43.4695L39.4344 43.2136C39.442 41.0669 38.5021 38.124 36.742 34.9109L36.3787 34.2644C35.7744 33.21 35.0848 32.1274 34.3192 31.031L34.1248 30.7517L33.9168 31.0212ZM21.4969 18.0906C19.4754 19.6212 17.4237 21.403 15.4266 23.4001C13.4294 25.3973 11.6477 27.449 10.117 29.4705L10.0027 29.6218L10.117 29.7722C11.6477 31.7938 13.4293 33.8462 15.4266 35.8435C17.4237 37.8406 19.4732 39.6223 21.4969 41.1531L21.6483 41.2673L21.7986 41.1531C23.8202 39.6224 25.8727 37.8407 27.8699 35.8435C29.8671 33.8463 31.6487 31.796 33.1795 29.7722L33.2938 29.6218L33.1795 29.4705C31.6488 27.449 29.8671 25.3973 27.8699 23.4001C25.8727 21.4029 23.8202 19.6213 21.7986 18.0906L21.6483 17.9763L21.4969 18.0906ZM8.04864 11.8376C7.35652 11.8377 6.74484 11.9318 6.22736 12.1101H6.22638C5.70538 12.2911 5.28127 12.5526 4.92755 12.9041L4.92657 12.905C4.62084 13.2127 4.38188 13.5756 4.20587 14.0105L4.13458 14.2019C3.95619 14.7195 3.86218 15.3319 3.86212 16.0242C3.85381 18.2772 4.89064 21.407 6.82306 24.8064L6.82013 24.8103L6.91583 24.9763C7.5201 26.0306 8.2089 27.1134 8.97443 28.2097L9.16974 28.489L9.37775 28.2195C10.8697 26.2886 12.5763 24.3462 14.4715 22.449C16.3687 20.5518 18.311 18.8473 20.242 17.3552L20.5115 17.1472L20.2322 16.9519C19.41 16.3778 18.5954 15.8467 17.7947 15.3621L16.9988 14.8933C13.5369 12.8993 10.3407 11.8292 8.04864 11.8376ZM35.243 11.8376C32.9897 11.8295 29.8594 12.8659 26.4598 14.7986L26.4568 14.7957L26.2918 14.8904C25.2373 15.4947 24.1539 16.1843 23.0574 16.95L22.7791 17.1453L23.0477 17.3533C24.9786 18.8452 26.9209 20.5518 28.8182 22.447C30.7154 24.3442 32.4208 26.2865 33.9129 28.2175L34.1209 28.4871L34.3152 28.2078C34.8892 27.3842 35.4204 26.5704 35.9051 25.7703L36.3748 24.9744C38.244 21.729 39.3008 18.7169 39.4188 16.4646L39.4305 16.0242C39.4304 15.4185 39.358 14.8744 39.2205 14.4011L39.158 14.2019C38.9791 13.681 38.7172 13.2542 38.3651 12.9021L38.3641 12.9011C38.0107 12.5523 37.587 12.2911 37.0662 12.1101H37.0652C36.5476 11.9317 35.9354 11.8377 35.243 11.8376Z" stroke="url(#paint0_linear_24_4039)" stroke-width="0.5"/>
<defs>
<linearGradient id="paint0_linear_24_4039" x1="11.5396" y1="-30.6272" x2="54.3415" y2="-17.9249" gradientUnits="userSpaceOnUse">
<stop stop-color="white"/>
<stop offset="1" stop-color="#8B8B8B"/>
</linearGradient>
</defs>
</svg>
